# xmcd
#
# Track frame offsets: 
#        150
#        1766
#        13906
#        36133
#        87961
#        88561
#        114939
#        143956
#        160026
#        189711
#        209270
#        233503
#        261858
#        301338
#
# Disc length: 4496 seconds
#
# Revision: 0
# Processed by: cddbd v1.5.2PL0 Copyright (c) Steve Scherf et al.
# Submitted via: ExactAudioCopy v0.95b3
#
DISCID=a8118e0e
DTITLE=Led Zeppelin  - Studio Sessions Ultimate [Disc 11] 
DYEAR=1900
DGENRE=
TTITLE0=Royal Orleans
TTITLE1=Tea For One
TTITLE2=Don't Start Me Talking
TTITLE3=Carouselambra
TTITLE4=Unknown Song
TTITLE5=Wearing And Tearing
TTITLE6=Fool In The Rain
TTITLE7=Hot Dog
TTITLE8=In The Evening
TTITLE9=South Bound Saurez
TTITLE10=Darlene
TTITLE11=Fool In The Rain
TTITLE12=Carouselambra
TTITLE13=All My Love
EXTD=
EXTT0=
EXTT1=
EXTT2=
EXTT3=
EXTT4=
EXTT5=
EXTT6=
EXTT7=
EXTT8=
EXTT9=
EXTT10=
EXTT11=
EXTT12=
EXTT13=
PLAYORDER=
